<svg xmlns="http://www.w3.org/2000/svg" version="1.1" xmlns:xlink="http://www.w3.org/1999/xlink" xmlns:svgjs="http://svgjs.dev/svgjs" width="1000" height="1000" viewBox="0 0 1000 1000"><rect width="1000" height="1000" fill="#000000"></rect><g transform="matrix(0.7,0,0,0.7,149.57575757575756,402.98274160015137)"><svg viewBox="0 0 396 110" data-background-color="#ffffff" preserveAspectRatio="xMidYMid meet" height="277" width="1000" xmlns="http://www.w3.org/2000/svg" xmlns:xlink="http://www.w3.org/1999/xlink"><g id="tight-bounds" transform="matrix(1,0,0,1,0.2400000000000091,0.03815587407609655)"><svg viewBox="0 0 395.52 109.92368825184778" height="109.92368825184778" width="395.52"><g><svg viewBox="0 0 658.9760062465515 183.14389430646648" height="109.92368825184778" width="395.52"><g transform="matrix(1,0,0,1,263.4560062465515,51.27846910685928)"><svg viewBox="0 0 395.52 80.58695609274791" height="80.58695609274791" width="395.52"><g><svg viewBox="0 0 395.52 80.58695609274791" height="80.58695609274791" width="395.52"><g><svg viewBox="0 0 395.52 80.58695609274791" height="80.58695609274791" width="395.52"><g transform="matrix(1,0,0,1,0,0)"><svg width="395.52" viewBox="3.15 -40.85 202.68 41.300000000000004" height="80.58695609274791" data-palette-color="#ffffff"><path d="M13.95 0L3.15 0 3.15-40.5 12.45-40.5Q15.2-40.5 17.23-39.9 19.25-39.3 20.6-38.05 21.95-36.8 22.6-34.88 23.25-32.95 23.25-30.35L23.25-30.35Q23.25-27.85 22.63-26.03 22-24.2 20.73-23.15 19.45-22.1 17.45-21.8L17.45-21.8Q19.9-21.25 21.4-19.93 22.9-18.6 23.63-16.53 24.35-14.45 24.35-11.55L24.35-11.55Q24.35-8.95 23.75-6.8 23.15-4.65 21.88-3.15 20.6-1.65 18.63-0.83 16.65 0 13.95 0L13.95 0ZM8.8-19.3L8.8-4.05 12.6-4.05Q16.4-4.05 17.68-5.83 18.95-7.6 18.95-11.55L18.95-11.55Q18.95-14.1 18.28-15.83 17.6-17.55 16.13-18.43 14.65-19.3 12.15-19.3L12.15-19.3 8.8-19.3ZM8.8-36.3L8.8-23.6 12.15-23.6Q14.55-23.6 15.9-24.28 17.25-24.95 17.8-26.45 18.35-27.95 18.35-30.35L18.35-30.35Q18.35-33.15 17.5-34.4 16.65-35.65 14.85-35.98 13.05-36.3 10.15-36.3L10.15-36.3 8.8-36.3ZM39.8 0.45L39.8 0.45Q35.4 0.45 33.05-1.3 30.7-3.05 29.85-6.23 29-9.4 29-13.65L29-13.65 29-40.5 34.4-40.5 34.4-13.4Q34.4-10.8 34.75-8.65 35.1-6.5 36.27-5.25 37.45-4 39.8-4L39.8-4Q42.2-4 43.35-5.25 44.5-6.5 44.85-8.65 45.2-10.8 45.2-13.4L45.2-13.4 45.2-40.5 50.55-40.5 50.55-13.65Q50.55-9.4 49.7-6.23 48.85-3.05 46.52-1.3 44.2 0.45 39.8 0.45ZM66.05 0.45L66.05 0.45Q62.55 0.45 60.22-1.05 57.9-2.55 56.7-5.2 55.5-7.85 55.3-11.35L55.3-11.35 60.3-12.7Q60.45-10.55 60.97-8.55 61.5-6.55 62.7-5.28 63.9-4 66.05-4L66.05-4Q68.25-4 69.37-5.23 70.5-6.45 70.5-8.75L70.5-8.75Q70.5-11.5 69.25-13.18 68-14.85 66.09-16.55L66.09-16.55 59.3-22.55Q57.3-24.3 56.35-26.38 55.4-28.45 55.4-31.5L55.4-31.5Q55.4-35.95 57.95-38.4 60.5-40.85 64.9-40.85L64.9-40.85Q67.3-40.85 69.12-40.23 70.95-39.6 72.17-38.3 73.4-37 74.12-35.02 74.84-33.05 75.09-30.4L75.09-30.4 70.3-29.1Q70.15-31.1 69.7-32.77 69.25-34.45 68.12-35.48 67-36.5 64.9-36.5L64.9-36.5Q62.8-36.5 61.62-35.38 60.45-34.25 60.45-32.05L60.45-32.05Q60.45-30.2 61.07-29 61.7-27.8 63.1-26.55L63.1-26.55 69.95-20.55Q72.25-18.55 74-15.78 75.75-13 75.75-9.2L75.75-9.2Q75.75-6.2 74.5-4.03 73.25-1.85 71.07-0.7 68.9 0.45 66.05 0.45ZM89.69 0.45L89.69 0.45Q86.19 0.45 83.87-1.05 81.54-2.55 80.34-5.2 79.14-7.85 78.94-11.35L78.94-11.35 83.94-12.7Q84.09-10.55 84.62-8.55 85.14-6.55 86.34-5.28 87.54-4 89.69-4L89.69-4Q91.89-4 93.02-5.23 94.14-6.45 94.14-8.75L94.14-8.75Q94.14-11.5 92.89-13.18 91.64-14.85 89.74-16.55L89.74-16.55 82.94-22.55Q80.94-24.3 79.99-26.38 79.04-28.45 79.04-31.5L79.04-31.5Q79.04-35.95 81.59-38.4 84.14-40.85 88.54-40.85L88.54-40.85Q90.94-40.85 92.77-40.23 94.59-39.6 95.82-38.3 97.04-37 97.77-35.02 98.49-33.05 98.74-30.4L98.74-30.4 93.94-29.1Q93.79-31.1 93.34-32.77 92.89-34.45 91.77-35.48 90.64-36.5 88.54-36.5L88.54-36.5Q86.44-36.5 85.27-35.38 84.09-34.25 84.09-32.05L84.09-32.05Q84.09-30.2 84.72-29 85.34-27.8 86.74-26.55L86.74-26.55 93.59-20.55Q95.89-18.55 97.64-15.78 99.39-13 99.39-9.2L99.39-9.2Q99.39-6.2 98.14-4.03 96.89-1.85 94.72-0.7 92.54 0.45 89.69 0.45ZM109.64 0L104.09 0 104.09-40.5 109.64-40.5 109.64 0ZM120.99 0L116.19 0 116.19-40.5 120.04-40.5 131.54-13.6 131.54-40.5 136.24-40.5 136.24 0 132.64 0 120.99-27.65 120.99 0ZM158.39 0L142.59 0 142.59-40.5 158.29-40.5 158.29-36.3 148.24-36.3 148.24-22.9 156.39-22.9 156.39-18.9 148.24-18.9 148.24-4.05 158.39-4.05 158.39 0ZM172.48 0.45L172.48 0.45Q168.98 0.45 166.66-1.05 164.33-2.55 163.13-5.2 161.93-7.85 161.73-11.35L161.73-11.35 166.73-12.7Q166.88-10.55 167.41-8.55 167.93-6.55 169.13-5.28 170.33-4 172.48-4L172.48-4Q174.68-4 175.81-5.23 176.93-6.45 176.93-8.75L176.93-8.75Q176.93-11.5 175.68-13.18 174.43-14.85 172.53-16.55L172.53-16.55 165.73-22.55Q163.73-24.3 162.78-26.38 161.83-28.45 161.83-31.5L161.83-31.5Q161.83-35.95 164.38-38.4 166.93-40.85 171.33-40.85L171.33-40.85Q173.73-40.85 175.56-40.23 177.38-39.6 178.61-38.3 179.83-37 180.56-35.02 181.28-33.05 181.53-30.4L181.53-30.4 176.73-29.1Q176.58-31.1 176.13-32.77 175.68-34.45 174.56-35.48 173.43-36.5 171.33-36.5L171.33-36.5Q169.23-36.5 168.06-35.38 166.88-34.25 166.88-32.05L166.88-32.05Q166.88-30.2 167.51-29 168.13-27.8 169.53-26.55L169.53-26.55 176.38-20.55Q178.68-18.55 180.43-15.78 182.18-13 182.18-9.2L182.18-9.2Q182.18-6.2 180.93-4.03 179.68-1.85 177.51-0.7 175.33 0.45 172.48 0.45ZM196.13 0.45L196.13 0.45Q192.63 0.45 190.31-1.05 187.98-2.55 186.78-5.2 185.58-7.85 185.38-11.35L185.38-11.35 190.38-12.7Q190.53-10.55 191.06-8.55 191.58-6.55 192.78-5.28 193.98-4 196.13-4L196.13-4Q198.33-4 199.46-5.23 200.58-6.45 200.58-8.75L200.58-8.75Q200.58-11.5 199.33-13.18 198.08-14.85 196.18-16.55L196.18-16.55 189.38-22.55Q187.38-24.3 186.43-26.38 185.48-28.45 185.48-31.5L185.48-31.5Q185.48-35.95 188.03-38.4 190.58-40.85 194.98-40.85L194.98-40.85Q197.38-40.85 199.21-40.23 201.03-39.6 202.26-38.3 203.48-37 204.21-35.02 204.93-33.05 205.18-30.4L205.18-30.4 200.38-29.1Q200.23-31.1 199.78-32.77 199.33-34.45 198.21-35.48 197.08-36.5 194.98-36.5L194.98-36.5Q192.88-36.5 191.71-35.38 190.53-34.25 190.53-32.05L190.53-32.05Q190.53-30.2 191.16-29 191.78-27.8 193.18-26.55L193.18-26.55 200.03-20.55Q202.33-18.55 204.08-15.78 205.83-13 205.83-9.2L205.83-9.2Q205.83-6.2 204.58-4.03 203.33-1.85 201.16-0.7 198.98 0.45 196.13 0.45Z" opacity="1" transform="matrix(1,0,0,1,0,0)" fill="#ffffff" class="undefined-text-0" data-fill-palette-color="primary" id="text-0"></path></svg></g></svg></g></svg></g></svg></g><g><svg viewBox="0 0 244.43135999999998 183.14389430646648" height="183.14389430646648" width="244.43135999999998"><g><svg xmlns="http://www.w3.org/2000/svg" xmlns:xlink="http://www.w3.org/1999/xlink" version="1.1" x="0" y="0" viewBox="0 8.024000000000004 64.00004242820201 47.953" enable-background="new 0 0 64 64" xml:space="preserve" width="244.43135999999998" height="183.14389430646648" class="icon-icon-0" data-fill-palette-color="accent" id="icon-0"><g fill="#ffffff" data-fill-palette-color="accent"><path d="M63.533 39.417c-0.947-1.609-3.02-2.148-4.629-1.2L40.842 48.842l-8.302-3.298c0 0-1.203-0.448-0.375-2.316 0.758-1.713 1.898-1.132 1.898-1.132l5.674 2.191c0.398 0.152 0.811 0.227 1.217 0.227 1.357 0 2.639-0.822 3.156-2.164 0.672-1.742-0.193-3.701-1.938-4.373l-15.109-5.835c-0.566-0.219-1.158-0.284-1.715-0.177-4.894 0.958-7.98 3.018-7.98 3.018v15.423c0 0 3.689-0.336 4.917-0.336 2.537 0 5.609 0.908 5.609 0.908l11.986 4.761c0.402 0.158 0.824 0.238 1.248 0.238 0.598 0 1.189-0.157 1.715-0.466l19.488-11.465C63.943 43.1 64.479 41.027 63.533 39.417z" fill="#ffffff" data-fill-palette-color="accent"></path><path d="M0 53.926h16.104V34.198H0V53.926zM10.285 37.818c1.231 0 2.229 0.998 2.229 2.23 0 1.23-0.997 2.23-2.229 2.23-1.232 0-2.23-1-2.23-2.23C8.055 38.816 9.053 37.818 10.285 37.818zM3.261 36.566h2.048v14.992H3.261V36.566z" fill="#ffffff" data-fill-palette-color="accent"></path><path d="M22.801 30.469c-0.328-1.302-0.51-2.636-0.51-3.995 0-9.044 7.361-16.402 16.406-16.402 9.045 0 16.404 7.358 16.404 16.402 0 6.109-3.467 11.671-8.721 14.48 0.023 0.719-0.094 1.441-0.359 2.133-0.053 0.131-0.109 0.259-0.17 0.386 0.104-0.044 0.209-0.09 0.311-0.136l3.553-2.091c4.555-3.425 7.436-8.871 7.436-14.772 0-10.174-8.279-18.45-18.453-18.45-10.175 0-18.453 8.276-18.453 18.45 0 1.57 0.212 3.113 0.602 4.615C21.446 30.874 22.1 30.664 22.801 30.469z" fill="#ffffff" data-fill-palette-color="accent"></path><path d="M51.551 26.471c0-7.101-5.756-12.856-12.855-12.856-7.099 0-12.855 5.756-12.855 12.856 0 1.191 0.172 2.342 0.475 3.437 0.5 0.042 1 0.136 1.486 0.325l15.109 5.834c0.857 0.33 1.582 0.879 2.162 1.561C48.941 35.411 51.551 31.25 51.551 26.471zM40.008 31.73v2.161h-1.309v-2.099c-1.205-0.021-2.453-0.395-3.18-0.915l0.498-1.393c0.748 0.5 1.828 0.894 2.992 0.894 1.477 0 2.475-0.85 2.475-2.037 0-1.143-0.811-1.85-2.35-2.474-2.121-0.83-3.43-1.786-3.43-3.595 0-1.726 1.227-3.034 3.141-3.347v-2.099h1.285v2.015c1.248 0.042 2.102 0.374 2.703 0.729l-0.52 1.372c-0.438-0.249-1.289-0.707-2.619-0.707-1.6 0-2.201 0.957-2.201 1.787 0 1.082 0.77 1.622 2.578 2.369 2.139 0.873 3.219 1.956 3.219 3.804C43.291 29.839 42.15 31.376 40.008 31.73z" fill="#ffffff" data-fill-palette-color="accent"></path></g></svg></g></svg></g></svg></g><defs></defs></svg><rect width="395.52" height="109.92368825184778" fill="none" stroke="none" visibility="hidden"></rect></g></svg></g></svg>